# Blender 5.1.1
# www.blender.org
mtllib target.mtl
o mesh_Target
v 0.099663 0.984201 -0.007000
v 0.098715 0.946884 -0.007000
v -0.000000 0.946884 -0.007000
v -0.000000 0.984201 -0.007000
v 0.129807 1.214974 -0.007000
v 0.135304 1.145247 -0.007000
v -0.000000 1.145247 -0.007000
v -0.000000 1.214974 -0.007000
v 0.136996 0.908195 -0.007000
v 0.233219 0.875382 -0.007000
v -0.000000 0.875382 -0.007000
v -0.000000 0.908195 -0.007000
v 0.270031 0.839811 -0.007000
v -0.000000 0.839811 -0.007000
v 0.133459 1.069368 -0.007000
v -0.000000 1.069368 -0.007000
v 0.116973 1.017144 -0.007000
v -0.000000 1.017144 -0.007000
v 0.301985 0.788962 -0.007000
v 0.318037 0.748947 -0.007000
v -0.000000 0.748947 -0.007000
v -0.000000 0.788962 -0.007000
v 0.318037 0.000000 -0.007000
v -0.000000 0.000000 -0.007000
v 0.098175 1.262825 -0.007000
v -0.000000 1.262825 -0.007000
v 0.062454 1.289977 -0.007000
v -0.000000 1.292028 -0.007000
v -0.099663 0.984201 -0.007000
v -0.098715 0.946884 -0.007000
v -0.129807 1.214974 -0.007000
v -0.135304 1.145247 -0.007000
v -0.136996 0.908195 -0.007000
v -0.233219 0.875382 -0.007000
v -0.270031 0.839811 -0.007000
v -0.133459 1.069368 -0.007000
v -0.116973 1.017144 -0.007000
v -0.301985 0.788962 -0.007000
v -0.318037 0.748947 -0.007000
v -0.318037 0.000000 -0.007000
v -0.098175 1.262825 -0.007000
v -0.062454 1.289977 -0.007000
v -0.153693 1.080750 -0.007000
v -0.155817 1.133866 -0.007000
v 0.155817 1.133866 -0.007000
v 0.153693 1.080750 -0.007000
v -0.040572 1.296130 -0.007000
v -0.000000 1.300232 -0.007000
v 0.040572 1.296130 -0.007000
v 0.099663 0.984201 0.007000
v 0.098715 0.946884 0.007000
v -0.000000 0.946884 0.007000
v -0.000000 0.984201 0.007000
v 0.129807 1.214974 0.007000
v 0.135304 1.145247 0.007000
v -0.000000 1.145247 0.007000
v -0.000000 1.214974 0.007000
v 0.136996 0.908195 0.007000
v 0.233219 0.875382 0.007000
v -0.000000 0.875382 0.007000
v -0.000000 0.908195 0.007000
v 0.270031 0.839811 0.007000
v -0.000000 0.839811 0.007000
v 0.133459 1.069368 0.007000
v -0.000000 1.069368 0.007000
v 0.116973 1.017144 0.007000
v -0.000000 1.017144 0.007000
v 0.301985 0.788962 0.007000
v 0.318037 0.748947 0.007000
v -0.000000 0.748947 0.007000
v -0.000000 0.788962 0.007000
v 0.318037 -0.000000 0.007000
v -0.000000 -0.000000 0.007000
v 0.098175 1.262825 0.007000
v -0.000000 1.262825 0.007000
v 0.062454 1.289977 0.007000
v -0.000000 1.292028 0.007000
v -0.099663 0.984201 0.007000
v -0.098715 0.946884 0.007000
v -0.129807 1.214974 0.007000
v -0.135304 1.145247 0.007000
v -0.136996 0.908195 0.007000
v -0.233219 0.875382 0.007000
v -0.270031 0.839811 0.007000
v -0.133459 1.069368 0.007000
v -0.116973 1.017144 0.007000
v -0.301985 0.788962 0.007000
v -0.318037 0.748947 0.007000
v -0.318037 -0.000000 0.007000
v -0.098175 1.262825 0.007000
v -0.062454 1.289977 0.007000
v -0.153693 1.080750 0.007000
v -0.155817 1.133866 0.007000
v 0.155817 1.133866 0.007000
v 0.153693 1.080750 0.007000
v -0.040572 1.296130 0.007000
v -0.000000 1.300232 0.007000
v 0.040572 1.296130 0.007000
vn -0.0000 -0.0000 -1.0000
vn -0.0000 -0.0000 1.0000
vn -0.1863 0.9825 -0.0000
vn -0.0000 1.0000 -0.0000
vn 0.9678 -0.2519 -0.0000
vn 0.9296 0.3685 -0.0000
vn 0.8910 0.4540 -0.0000
vn 0.9819 0.1896 -0.0000
vn 0.9456 0.3254 -0.0000
vn 0.8411 0.5409 -0.0000
vn 0.1863 0.9825 -0.0000
vn -0.7300 0.6834 -0.0000
vn -0.4458 0.8952 -0.0000
vn -0.8529 -0.5220 -0.0000
vn -0.8717 0.4901 -0.0000
vn -0.8717 0.4900 -0.0000
vn 0.9231 -0.3846 -0.0000
vn 0.4458 0.8952 -0.0000
vn -0.8411 0.5409 -0.0000
vn -0.9456 0.3254 -0.0000
vn -0.0000 -1.0000 -0.0000
vn -0.7071 -0.7071 -0.0000
vn 0.7763 -0.6304 -0.0000
vn -0.7763 -0.6304 -0.0000
vn -0.8530 -0.5220 -0.0000
vn -0.8910 0.4540 -0.0000
vn -0.7764 0.6302 -0.0000
vn 0.5214 0.8533 -0.0000
vn 0.7764 0.6302 -0.0000
vn -0.5309 0.8474 -0.0000
vn -0.9296 0.3685 -0.0000
vn 0.7300 0.6834 -0.0000
vn 0.5309 0.8474 -0.0000
vn 0.8717 0.4900 -0.0000
vn 0.8717 0.4901 -0.0000
vn 0.8529 -0.5220 -0.0000
vn -0.9819 0.1896 -0.0000
vn -0.9678 -0.2519 -0.0000
vn -0.5214 0.8533 -0.0000
vn 0.7071 -0.7071 -0.0000
vn 0.8530 -0.5220 -0.0000
vn 0.9296 0.3684 -0.0000
vn -0.9231 -0.3846 -0.0000
vt 0.668384 0.714147
vt 0.739615 0.741076
vt 0.667699 0.741075
vt 0.645945 0.907598
vt 0.739613 0.857285
vt 0.739612 0.907600
vt 0.640761 0.686228
vt 0.739617 0.662553
vt 0.739616 0.686230
vt 0.571327 0.662550
vt 0.739617 0.636885
vt 0.643311 0.802530
vt 0.641978 0.857283
vt 0.655208 0.764846
vt 0.739614 0.802532
vt 0.521707 0.600189
vt 0.739618 0.571318
vt 0.739618 0.600193
vt 0.544764 0.636881
vt 0.510134 0.030879
vt 0.510125 0.571314
vt 0.739615 0.764847
vt 0.668769 0.942128
vt 0.739612 0.942129
vt 0.739616 0.714148
vt 0.694545 0.961721
vt 0.739611 0.963202
vt 0.810847 0.714149
vt 0.811531 0.741077
vt 0.833280 0.907601
vt 0.837248 0.857287
vt 0.838471 0.686232
vt 0.907906 0.662556
vt 0.934470 0.636888
vt 0.835917 0.802533
vt 0.824021 0.764849
vt 0.957528 0.600197
vt 0.969112 0.571322
vt 0.969121 0.030887
vt 0.810454 0.942130
vt 0.784678 0.961723
vt 0.850518 0.810747
vt 0.852050 0.849075
vt 0.628710 0.810743
vt 0.768888 0.966162
vt 0.710335 0.966161
vt 0.739611 0.969121
vt 0.239623 0.741072
vt 0.168391 0.714144
vt 0.167707 0.741072
vt 0.145955 0.907596
vt 0.239623 0.857281
vt 0.141988 0.857281
vt 0.140768 0.686226
vt 0.239623 0.662549
vt 0.071334 0.662549
vt 0.239623 0.636881
vt 0.044770 0.636881
vt 0.143320 0.802528
vt 0.239623 0.802528
vt 0.155216 0.764843
vt 0.021713 0.600189
vt 0.239623 0.571314
vt 0.010129 0.571314
vt 0.239623 0.600189
vt 0.010129 0.030879
vt 0.239623 0.764843
vt 0.168780 0.942125
vt 0.239623 0.907596
vt 0.239623 0.686226
vt 0.194556 0.961718
vt 0.239623 0.942125
vt 0.310855 0.714144
vt 0.311539 0.741072
vt 0.333290 0.907596
vt 0.338478 0.686226
vt 0.407912 0.662549
vt 0.335926 0.802528
vt 0.337257 0.857281
vt 0.324030 0.764843
vt 0.457533 0.600189
vt 0.434476 0.636881
vt 0.469117 0.030879
vt 0.469117 0.571314
vt 0.310465 0.942125
vt 0.239623 0.714144
vt 0.284689 0.961718
vt 0.239623 0.963198
vt 0.350526 0.810741
vt 0.128719 0.810741
vt 0.268899 0.966157
vt 0.239623 0.969117
vt 0.210346 0.966157
vt 0.480269 0.026765
vt 0.487827 0.004751
vt 0.487827 0.026765
vt 0.500808 0.235546
vt 0.493250 0.255700
vt 0.493250 0.235546
vt 0.500808 0.400029
vt 0.493250 0.423306
vt 0.493250 0.400029
vt 0.500808 0.094231
vt 0.493250 0.131992
vt 0.493250 0.094231
vt 0.500808 0.004751
vt 0.493250 0.026766
vt 0.493249 0.004751
vt 0.487827 0.063258
vt 0.480269 0.039036
vt 0.487827 0.039036
vt 0.487828 0.173344
vt 0.480270 0.144647
vt 0.487828 0.144647
vt 0.500808 0.215455
vt 0.493250 0.215455
vt 0.500808 0.026767
vt 0.493250 0.039038
vt 0.487828 0.131983
vt 0.480270 0.094225
vt 0.487828 0.094225
vt 0.480272 0.999332
vt 0.487830 0.827629
vt 0.487831 0.999332
vt 0.500808 0.185889
vt 0.493250 0.185889
vt 0.487828 0.185877
vt 0.480270 0.173344
vt 0.480270 0.400005
vt 0.487828 0.367584
vt 0.487828 0.400005
vt 0.500808 0.339970
vt 0.493250 0.367607
vt 0.493250 0.339970
vt 0.480270 0.285066
vt 0.487828 0.255683
vt 0.487828 0.285066
vt 0.500808 0.039038
vt 0.493250 0.063262
vt 0.500808 0.285084
vt 0.493250 0.285084
vt 0.500808 0.131992
vt 0.493250 0.144657
vt 0.500808 0.144657
vt 0.493250 0.173356
vt 0.480272 0.827629
vt 0.487828 0.423281
vt 0.480270 0.235531
vt 0.487828 0.235531
vt 0.480270 0.339949
vt 0.487828 0.339949
vt 0.500808 0.063262
vt 0.500808 0.827644
vt 0.493250 0.827644
vt 0.480270 0.063258
vt 0.500808 0.173356
vt 0.480270 0.131983
vt 0.480270 0.367584
vt 0.500809 0.255700
vt 0.480270 0.215442
vt 0.487828 0.215442
vt 0.493249 0.999332
vt 0.480270 0.185877
vt 0.500808 0.367607
vt 0.739628 0.030883
vt 0.627177 0.849071
vt 0.239623 0.030879
vt 0.352059 0.849069
vt 0.127186 0.849069
vt 0.480269 0.004751
vt 0.500808 0.423306
vt 0.480270 0.255683
vt 0.480270 0.423281
vt 0.500807 0.999332
s 1
f 2/1/1 4/2/1 1/3/1
f 5/4/1 7/5/1 8/6/1
f 9/7/1 11/8/1 12/9/1
f 10/10/1 14/11/1 11/8/1
f 15/12/1 7/5/1 6/13/1
f 17/14/1 16/15/1 15/12/1
f 19/16/1 21/17/1 22/18/1
f 13/19/1 22/18/1 14/11/1
f 23/20/1 21/17/1 20/21/1
f 1/3/1 18/22/1 17/14/1
f 25/23/1 8/6/1 26/24/1
f 2/1/1 12/9/1 3/25/1
f 27/26/1 26/24/1 28/27/1
f 4/2/1 30/28/1 29/29/1
f 31/30/1 7/5/1 32/31/1
f 33/32/1 11/8/1 34/33/1
f 34/33/1 14/11/1 35/34/1
f 7/5/1 36/35/1 32/31/1
f 16/15/1 37/36/1 36/35/1
f 38/37/1 21/17/1 39/38/1
f 35/34/1 22/18/1 38/37/1
f 21/17/1 40/39/1 39/38/1
f 18/22/1 29/29/1 37/36/1
f 41/40/1 8/6/1 31/30/1
f 30/28/1 12/9/1 33/32/1
f 42/41/1 26/24/1 41/40/1
f 32/31/1 43/42/1 44/43/1
f 6/13/1 46/44/1 15/12/1
f 47/45/1 28/27/1 42/41/1
f 49/46/1 28/27/1 48/47/1
f 53/48/2 51/49/2 50/50/2
f 54/51/2 56/52/2 55/53/2
f 58/54/2 60/55/2 59/56/2
f 59/56/2 63/57/2 62/58/2
f 56/52/2 64/59/2 55/53/2
f 65/60/2 66/61/2 64/59/2
f 68/62/2 70/63/2 69/64/2
f 62/58/2 71/65/2 68/62/2
f 70/63/2 72/66/2 69/64/2
f 67/67/2 50/50/2 66/61/2
f 74/68/2 57/69/2 54/51/2
f 51/49/2 61/70/2 58/54/2
f 76/71/2 75/72/2 74/68/2
f 79/73/2 53/48/2 78/74/2
f 80/75/2 56/52/2 57/69/2
f 82/76/2 60/55/2 61/70/2
f 83/77/2 63/57/2 60/55/2
f 85/78/2 56/52/2 81/79/2
f 86/80/2 65/60/2 85/78/2
f 87/81/2 70/63/2 71/65/2
f 84/82/2 71/65/2 63/57/2
f 89/83/2 70/63/2 88/84/2
f 78/74/2 67/67/2 86/80/2
f 90/85/2 57/69/2 75/72/2
f 79/73/2 61/70/2 52/86/2
f 91/87/2 75/72/2 77/88/2
f 81/79/2 92/89/2 85/78/2
f 95/90/2 55/53/2 64/59/2
f 96/91/2 77/88/2 97/92/2
f 98/93/2 77/88/2 76/71/2
f 96/94/3 48/95/4 47/96/3
f 50/97/5 2/98/6 1/99/5
f 68/100/7 20/101/8 19/102/7
f 54/103/9 6/104/10 5/105/9
f 97/106/4 49/107/11 48/108/4
f 41/109/12 91/110/13 42/111/13
f 43/112/14 93/113/15 44/114/16
f 66/115/17 1/99/5 17/116/17
f 98/117/11 27/118/18 49/107/11
f 32/119/19 80/120/20 31/121/20
f 91/110/13 47/96/3 42/111/13
f 73/122/21 40/123/22 24/124/21
f 64/125/23 17/116/17 15/126/23
f 36/127/24 92/128/25 43/112/14
f 87/129/26 35/130/27 38/131/26
f 59/132/28 13/133/29 10/134/28
f 82/135/30 30/136/31 33/137/30
f 76/138/18 25/139/32 27/118/18
f 58/140/33 10/134/28 9/141/33
f 55/142/10 45/143/34 6/104/10
f 94/144/35 46/145/36 45/143/34
f 89/146/22 39/147/37 40/123/22
f 30/136/31 78/148/38 29/149/38
f 83/150/39 33/137/30 34/151/39
f 74/152/32 5/105/9 25/139/32
f 20/101/8 72/153/40 23/154/40
f 31/121/20 90/155/12 41/109/12
f 95/156/41 15/126/23 46/145/36
f 44/114/16 81/157/19 32/119/19
f 84/158/27 34/151/39 35/130/27
f 51/159/42 9/141/33 2/98/6
f 29/149/38 86/160/43 37/161/43
f 39/147/37 87/129/26 38/131/26
f 72/153/40 24/162/21 23/154/40
f 37/161/43 85/163/24 36/127/24
f 62/164/29 19/102/7 13/133/29
f 2/1/1 3/25/1 4/2/1
f 5/4/1 6/13/1 7/5/1
f 9/7/1 10/10/1 11/8/1
f 10/10/1 13/19/1 14/11/1
f 15/12/1 16/15/1 7/5/1
f 17/14/1 18/22/1 16/15/1
f 19/16/1 20/21/1 21/17/1
f 13/19/1 19/16/1 22/18/1
f 23/20/1 24/165/1 21/17/1
f 1/3/1 4/2/1 18/22/1
f 25/23/1 5/4/1 8/6/1
f 2/1/1 9/7/1 12/9/1
f 27/26/1 25/23/1 26/24/1
f 4/2/1 3/25/1 30/28/1
f 31/30/1 8/6/1 7/5/1
f 33/32/1 12/9/1 11/8/1
f 34/33/1 11/8/1 14/11/1
f 7/5/1 16/15/1 36/35/1
f 16/15/1 18/22/1 37/36/1
f 38/37/1 22/18/1 21/17/1
f 35/34/1 14/11/1 22/18/1
f 21/17/1 24/165/1 40/39/1
f 18/22/1 4/2/1 29/29/1
f 41/40/1 26/24/1 8/6/1
f 30/28/1 3/25/1 12/9/1
f 42/41/1 28/27/1 26/24/1
f 32/31/1 36/35/1 43/42/1
f 6/13/1 45/166/1 46/44/1
f 47/45/1 48/47/1 28/27/1
f 49/46/1 27/26/1 28/27/1
f 53/48/2 52/86/2 51/49/2
f 54/51/2 57/69/2 56/52/2
f 58/54/2 61/70/2 60/55/2
f 59/56/2 60/55/2 63/57/2
f 56/52/2 65/60/2 64/59/2
f 65/60/2 67/67/2 66/61/2
f 68/62/2 71/65/2 70/63/2
f 62/58/2 63/57/2 71/65/2
f 70/63/2 73/167/2 72/66/2
f 67/67/2 53/48/2 50/50/2
f 74/68/2 75/72/2 57/69/2
f 51/49/2 52/86/2 61/70/2
f 76/71/2 77/88/2 75/72/2
f 79/73/2 52/86/2 53/48/2
f 80/75/2 81/79/2 56/52/2
f 82/76/2 83/77/2 60/55/2
f 83/77/2 84/82/2 63/57/2
f 85/78/2 65/60/2 56/52/2
f 86/80/2 67/67/2 65/60/2
f 87/81/2 88/84/2 70/63/2
f 84/82/2 87/81/2 71/65/2
f 89/83/2 73/167/2 70/63/2
f 78/74/2 53/48/2 67/67/2
f 90/85/2 80/75/2 57/69/2
f 79/73/2 82/76/2 61/70/2
f 91/87/2 90/85/2 75/72/2
f 81/79/2 93/168/2 92/89/2
f 95/90/2 94/169/2 55/53/2
f 96/91/2 91/87/2 77/88/2
f 98/93/2 97/92/2 77/88/2
f 96/94/3 97/170/4 48/95/4
f 50/97/5 51/159/42 2/98/6
f 68/100/7 69/171/8 20/101/8
f 54/103/9 55/142/10 6/104/10
f 97/106/4 98/117/11 49/107/11
f 41/109/12 90/155/12 91/110/13
f 43/112/14 92/128/25 93/113/15
f 66/115/17 50/97/5 1/99/5
f 98/117/11 76/138/18 27/118/18
f 32/119/19 81/157/19 80/120/20
f 91/110/13 96/94/3 47/96/3
f 73/122/21 89/146/22 40/123/22
f 64/125/23 66/115/17 17/116/17
f 36/127/24 85/163/24 92/128/25
f 87/129/26 84/158/27 35/130/27
f 59/132/28 62/164/29 13/133/29
f 82/135/30 79/172/31 30/136/31
f 76/138/18 74/152/32 25/139/32
f 58/140/33 59/132/28 10/134/28
f 55/142/10 94/144/35 45/143/34
f 94/144/35 95/156/41 46/145/36
f 89/146/22 88/173/37 39/147/37
f 30/136/31 79/172/31 78/148/38
f 83/150/39 82/135/30 33/137/30
f 74/152/32 54/103/9 5/105/9
f 20/101/8 69/171/8 72/153/40
f 31/121/20 80/120/20 90/155/12
f 95/156/41 64/125/23 15/126/23
f 44/114/16 93/113/15 81/157/19
f 84/158/27 83/150/39 34/151/39
f 51/159/42 58/140/33 9/141/33
f 29/149/38 78/148/38 86/160/43
f 39/147/37 88/173/37 87/129/26
f 72/153/40 73/174/21 24/162/21
f 37/161/43 86/160/43 85/163/24
f 62/164/29 68/100/7 19/102/7
